<?xml version="1.0" encoding="UTF-8"?>
<svg id="Layer_1" xmlns="http://www.w3.org/2000/svg" version="1.1" viewBox="0 0 563.68 563.46">
  <!-- Generator: Adobe Illustrator 30.6.0, SVG Export Plug-In . SVG Version: 2.1.4 Build 109)  -->
  <defs>
    <style>
      .st0 {
        fill: #fff;
      }

      .st1 {
        fill: #d01525;
      }

      .st2 {
        fill: #ef7d00;
      }
    </style>
  </defs>
  <circle class="st0" cx="282.19" cy="281.7" r="281.49"/>
  <g>
    <path class="st2" d="M563.65,281.84c0,79.1-32.6,150.63-85.1,201.82L200.83,221.69c31.69-20.2,90.63-43.54,90.63-43.98L135.71,40.8C178,15.07,227.62.22,280.71,0h1.54c155.46.22,281.4,126.34,281.4,281.84Z"/>
    <path class="st1" d="M469.72,491.9c-41.05,36.81-92.97,61.69-150.42,69.3-.22.04-.48.07-.69.11-.73.11-1.46.18-2.2.26-2.19.26-4.39.51-6.59.69-8.82.8-17.71,1.21-26.75,1.21-37.1,0-72.63-6.95-105.23-19.61-1.35-.51-2.71-1.06-4.03-1.61-.59-.22-1.13-.48-1.68-.7C70.98,498.74,0,398.56,0,281.84c0-79.73,33.11-151.73,86.31-202.99l125.53,111.63-78.74,36.52,336.61,264.9Z"/>
  </g>
</svg>