<svg width="360" height="96" viewBox="0 0 360 96" fill="none" xmlns="http://www.w3.org/2000/svg" role="img" aria-labelledby="title desc">
  <title id="title">Digital Rey</title>
  <desc id="desc">Logo da Digital Rey com ícone de obras e construção.</desc>
  <g transform="translate(8 14)">
    <circle cx="24" cy="24" r="20" fill="#f36f21"/>
    <rect x="11.5" y="20" width="11" height="15" rx="1.6" fill="#ffffff"/>
    <rect x="14" y="23" width="2" height="2" rx="0.3" fill="#f36f21"/>
    <rect x="18" y="23" width="2" height="2" rx="0.3" fill="#f36f21"/>
    <rect x="14" y="27" width="2" height="2" rx="0.3" fill="#f36f21"/>
    <rect x="18" y="27" width="2" height="2" rx="0.3" fill="#f36f21"/>
    <rect x="16" y="31" width="2.5" height="4" rx="0.4" fill="#f36f21"/>
    <path d="M24.5 14H36" stroke="#ffffff" stroke-width="2.4" stroke-linecap="round"/>
    <path d="M28.5 14V35" stroke="#ffffff" stroke-width="2.4" stroke-linecap="round"/>
    <path d="M28.5 18L33.5 14" stroke="#ffffff" stroke-width="2" stroke-linecap="round"/>
    <path d="M35.5 14V22" stroke="#ffffff" stroke-width="2" stroke-linecap="round"/>
    <path d="M35.5 22C35.5 23.8 34.2 25 32.6 25" stroke="#ffffff" stroke-width="2" stroke-linecap="round"/>
    <path d="M10.5 35.5H37.5" stroke="#ffffff" stroke-width="2" stroke-linecap="round"/>
  </g>
  <g transform="translate(62 18)">
    <text x="0" y="28" fill="#2c2925" font-family="Manrope, Inter, Segoe UI, Arial, sans-serif" font-size="31" font-weight="650" letter-spacing="-0.01em">Prospecção de Obras</text>
    <text x="0" y="54" fill="#6a645d" font-family="Manrope, Inter, Segoe UI, Arial, sans-serif" font-size="22" font-weight="520" letter-spacing="0">Digital Rey</text>
  </g>
</svg>